<svg width="163" height="34" viewBox="0 0 163 34" fill="none" xmlns="http://www.w3.org/2000/svg">
<path d="M10.752 12.036V23.5H9.2V18.284H3.016V23.5H1.464V12.036H3.016V17.148H9.2V12.036H10.752ZM21.4348 13.34H17.7228V23.5H16.1788V13.34H12.4588V12.036H21.4348V13.34ZM35.0639 12.036V23.5H33.7039V15.076C33.7039 14.964 33.7065 14.844 33.7119 14.716C33.7225 14.588 33.7332 14.4573 33.7439 14.324L29.8079 21.492C29.6852 21.732 29.4985 21.852 29.2479 21.852H29.0239C28.7732 21.852 28.5865 21.732 28.4639 21.492L24.4479 14.292C24.4799 14.5747 24.4959 14.836 24.4959 15.076V23.5H23.1359V12.036H24.2799C24.4185 12.036 24.5252 12.0493 24.5999 12.076C24.6745 12.1027 24.7465 12.1773 24.8159 12.3L28.7759 19.356C28.8399 19.484 28.9012 19.6173 28.9599 19.756C29.0239 19.8947 29.0825 20.036 29.1359 20.18C29.1892 20.036 29.2452 19.8947 29.3039 19.756C29.3625 19.612 29.4265 19.476 29.4959 19.348L33.3839 12.3C33.4479 12.1773 33.5172 12.1027 33.5919 12.076C33.6719 12.0493 33.7812 12.036 33.9199 12.036H35.0639ZM44.4993 22.196V23.5H37.9953V12.036H39.5393V22.196H44.4993ZM55.3801 19.244L53.5801 14.58C53.5268 14.4413 53.4708 14.2813 53.4121 14.1C53.3535 13.9133 53.2975 13.716 53.2441 13.508C53.1321 13.94 53.0175 14.3 52.9001 14.588L51.1001 19.244H55.3801ZM58.6121 23.5H57.4121C57.2735 23.5 57.1615 23.4653 57.0761 23.396C56.9908 23.3267 56.9268 23.2387 56.8841 23.132L55.8121 20.364H50.6681L49.5961 23.132C49.5641 23.228 49.5028 23.3133 49.4121 23.388C49.3215 23.4627 49.2095 23.5 49.0761 23.5H47.8761L52.4601 12.036H54.0281L58.6121 23.5ZM65.2055 16.836C65.1628 16.8947 65.1202 16.94 65.0775 16.972C65.0348 17.004 64.9762 17.02 64.9015 17.02C64.8215 17.02 64.7335 16.988 64.6375 16.924C64.5415 16.8547 64.4215 16.78 64.2775 16.7C64.1388 16.62 63.9655 16.548 63.7575 16.484C63.5548 16.4147 63.3042 16.38 63.0055 16.38C62.6055 16.38 62.2535 16.452 61.9495 16.596C61.6455 16.7347 61.3895 16.9373 61.1815 17.204C60.9788 17.4707 60.8242 17.7933 60.7175 18.172C60.6162 18.5507 60.5655 18.9747 60.5655 19.444C60.5655 19.9347 60.6215 20.372 60.7335 20.756C60.8455 21.1347 61.0028 21.4547 61.2055 21.716C61.4135 21.972 61.6615 22.1693 61.9495 22.308C62.2428 22.4413 62.5708 22.508 62.9335 22.508C63.2802 22.508 63.5655 22.468 63.7895 22.388C64.0135 22.3027 64.1975 22.2093 64.3415 22.108C64.4908 22.0067 64.6135 21.916 64.7095 21.836C64.8108 21.7507 64.9095 21.708 65.0055 21.708C65.1228 21.708 65.2135 21.7533 65.2775 21.844L65.6775 22.364C65.5015 22.5827 65.3015 22.7693 65.0775 22.924C64.8535 23.0787 64.6108 23.2093 64.3495 23.316C64.0935 23.4173 63.8242 23.492 63.5415 23.54C63.2588 23.588 62.9708 23.612 62.6775 23.612C62.1708 23.612 61.6988 23.5187 61.2615 23.332C60.8295 23.1453 60.4535 22.876 60.1335 22.524C59.8135 22.1667 59.5628 21.7293 59.3815 21.212C59.2002 20.6947 59.1095 20.1053 59.1095 19.444C59.1095 18.8413 59.1922 18.284 59.3575 17.772C59.5282 17.26 59.7735 16.82 60.0935 16.452C60.4188 16.0787 60.8162 15.788 61.2855 15.58C61.7602 15.372 62.3042 15.268 62.9175 15.268C63.4882 15.268 63.9895 15.3613 64.4215 15.548C64.8588 15.7293 65.2455 15.988 65.5815 16.324L65.2055 16.836ZM71.5981 19.852C70.9421 19.8733 70.3821 19.9267 69.9181 20.012C69.4595 20.092 69.0835 20.1987 68.7901 20.332C68.5021 20.4653 68.2915 20.6227 68.1581 20.804C68.0301 20.9853 67.9661 21.188 67.9661 21.412C67.9661 21.6253 68.0008 21.8093 68.0701 21.964C68.1395 22.1187 68.2328 22.2467 68.3501 22.348C68.4728 22.444 68.6141 22.516 68.7741 22.564C68.9395 22.6067 69.1155 22.628 69.3021 22.628C69.5528 22.628 69.7821 22.604 69.9901 22.556C70.1981 22.5027 70.3928 22.428 70.5741 22.332C70.7608 22.236 70.9368 22.1213 71.1021 21.988C71.2728 21.8547 71.4381 21.7027 71.5981 21.532V19.852ZM66.9981 16.54C67.4461 16.108 67.9288 15.7853 68.4461 15.572C68.9635 15.3587 69.5368 15.252 70.1661 15.252C70.6195 15.252 71.0221 15.3267 71.3741 15.476C71.7261 15.6253 72.0221 15.8333 72.2621 16.1C72.5021 16.3667 72.6835 16.6893 72.8061 17.068C72.9288 17.4467 72.9901 17.8627 72.9901 18.316V23.5H72.3581C72.2195 23.5 72.1128 23.4787 72.0381 23.436C71.9635 23.388 71.9048 23.2973 71.8621 23.164L71.7021 22.396C71.4888 22.5933 71.2808 22.7693 71.0781 22.924C70.8755 23.0733 70.6621 23.2013 70.4381 23.308C70.2141 23.4093 69.9741 23.4867 69.7181 23.54C69.4675 23.5987 69.1875 23.628 68.8781 23.628C68.5635 23.628 68.2675 23.5853 67.9901 23.5C67.7128 23.4093 67.4701 23.276 67.2621 23.1C67.0595 22.924 66.8968 22.7027 66.7741 22.436C66.6568 22.164 66.5981 21.844 66.5981 21.476C66.5981 21.156 66.6861 20.8493 66.8621 20.556C67.0381 20.2573 67.3235 19.9933 67.7181 19.764C68.1128 19.5347 68.6275 19.348 69.2621 19.204C69.8968 19.0547 70.6755 18.9693 71.5981 18.948V18.316C71.5981 17.6867 71.4621 17.212 71.1901 16.892C70.9181 16.5667 70.5208 16.404 69.9981 16.404C69.6461 16.404 69.3501 16.4493 69.1101 16.54C68.8755 16.6253 68.6701 16.724 68.4941 16.836C68.3235 16.9427 68.1741 17.0413 68.0461 17.132C67.9235 17.2173 67.8008 17.26 67.6781 17.26C67.5821 17.26 67.4995 17.236 67.4301 17.188C67.3608 17.1347 67.3021 17.0707 67.2541 16.996L66.9981 16.54ZM80.4393 17.324C80.1726 16.9667 79.8846 16.7187 79.5753 16.58C79.2659 16.436 78.9193 16.364 78.5353 16.364C77.7833 16.364 77.2046 16.6333 76.7993 17.172C76.3939 17.7107 76.1913 18.4787 76.1913 19.476C76.1913 20.004 76.2366 20.4573 76.3273 20.836C76.4179 21.2093 76.5513 21.5187 76.7273 21.764C76.9033 22.004 77.1193 22.18 77.3753 22.292C77.6313 22.404 77.9219 22.46 78.2473 22.46C78.7166 22.46 79.1246 22.3533 79.4713 22.14C79.8233 21.9267 80.1459 21.6253 80.4393 21.236V17.324ZM81.8633 11.716V23.5H81.0153C80.8126 23.5 80.6846 23.4013 80.6313 23.204L80.5033 22.22C80.1566 22.636 79.7619 22.972 79.3193 23.228C78.8766 23.484 78.3646 23.612 77.7833 23.612C77.3193 23.612 76.8979 23.524 76.5193 23.348C76.1406 23.1667 75.8179 22.9027 75.5513 22.556C75.2846 22.2093 75.0793 21.7773 74.9353 21.26C74.7913 20.7427 74.7193 20.148 74.7193 19.476C74.7193 18.8787 74.7993 18.324 74.9593 17.812C75.1193 17.2947 75.3486 16.8467 75.6473 16.468C75.9459 16.0893 76.3113 15.7933 76.7433 15.58C77.1806 15.3613 77.6713 15.252 78.2153 15.252C78.7113 15.252 79.1353 15.3373 79.4873 15.508C79.8446 15.6733 80.1619 15.9053 80.4393 16.204V11.716H81.8633ZM89.5364 18.564C89.5364 18.2333 89.4884 17.932 89.3924 17.66C89.3017 17.3827 89.1657 17.1453 88.9844 16.948C88.8084 16.7453 88.5924 16.5907 88.3364 16.484C88.0804 16.372 87.7897 16.316 87.4644 16.316C86.7817 16.316 86.2404 16.516 85.8404 16.916C85.4457 17.3107 85.2004 17.86 85.1044 18.564H89.5364ZM90.6884 22.364C90.5124 22.5773 90.3017 22.764 90.0564 22.924C89.811 23.0787 89.547 23.2067 89.2644 23.308C88.987 23.4093 88.699 23.484 88.4004 23.532C88.1017 23.5853 87.8057 23.612 87.5124 23.612C86.9524 23.612 86.435 23.5187 85.9604 23.332C85.491 23.14 85.083 22.8627 84.7364 22.5C84.395 22.132 84.1284 21.6787 83.9364 21.14C83.7444 20.6013 83.6484 19.9827 83.6484 19.284C83.6484 18.7187 83.7337 18.1907 83.9044 17.7C84.0804 17.2093 84.331 16.7853 84.6564 16.428C84.9817 16.0653 85.379 15.7827 85.8484 15.58C86.3177 15.372 86.8457 15.268 87.4324 15.268C87.9177 15.268 88.3657 15.3507 88.7764 15.516C89.1924 15.676 89.5497 15.9107 89.8484 16.22C90.1524 16.524 90.3897 16.9027 90.5604 17.356C90.731 17.804 90.8164 18.316 90.8164 18.892C90.8164 19.116 90.7924 19.2653 90.7444 19.34C90.6964 19.4147 90.6057 19.452 90.4724 19.452H85.0564C85.0724 19.964 85.1417 20.4093 85.2644 20.788C85.3924 21.1667 85.5684 21.484 85.7924 21.74C86.0164 21.9907 86.283 22.18 86.5924 22.308C86.9017 22.4307 87.2484 22.492 87.6324 22.492C87.9897 22.492 88.2964 22.452 88.5524 22.372C88.8137 22.2867 89.0377 22.196 89.2244 22.1C89.411 22.004 89.5657 21.916 89.6884 21.836C89.8164 21.7507 89.9257 21.708 90.0164 21.708C90.1337 21.708 90.2244 21.7533 90.2884 21.844L90.6884 22.364ZM92.5655 23.5V15.396H93.4215C93.6242 15.396 93.7495 15.4947 93.7975 15.692L93.9015 16.524C94.2002 16.156 94.5362 15.8547 94.9095 15.62C95.2828 15.3853 95.7148 15.268 96.2055 15.268C96.7495 15.268 97.1895 15.42 97.5255 15.724C97.8668 16.028 98.1122 16.4387 98.2615 16.956C98.3788 16.6627 98.5282 16.4093 98.7095 16.196C98.8962 15.9827 99.1042 15.8067 99.3335 15.668C99.5628 15.5293 99.8055 15.428 100.062 15.364C100.323 15.3 100.587 15.268 100.854 15.268C101.28 15.268 101.659 15.3373 101.99 15.476C102.326 15.6093 102.608 15.8067 102.838 16.068C103.072 16.3293 103.251 16.652 103.374 17.036C103.496 17.4147 103.558 17.8493 103.558 18.34V23.5H102.126V18.34C102.126 17.7053 101.987 17.2253 101.71 16.9C101.432 16.5693 101.032 16.404 100.51 16.404C100.275 16.404 100.051 16.4467 99.8375 16.532C99.6295 16.612 99.4455 16.732 99.2855 16.892C99.1255 17.052 98.9975 17.2547 98.9015 17.5C98.8108 17.74 98.7655 18.02 98.7655 18.34V23.5H97.3335V18.34C97.3335 17.6893 97.2028 17.204 96.9415 16.884C96.6802 16.564 96.2988 16.404 95.7975 16.404C95.4455 16.404 95.1202 16.5 94.8215 16.692C94.5228 16.8787 94.2482 17.1347 93.9975 17.46V23.5H92.5655ZM112.511 15.396L107.991 25.892C107.943 25.9987 107.881 26.084 107.807 26.148C107.737 26.212 107.628 26.244 107.479 26.244H106.423L107.903 23.028L104.559 15.396H105.791C105.913 15.396 106.009 15.428 106.079 15.492C106.153 15.5507 106.204 15.6173 106.231 15.692L108.399 20.796C108.484 21.02 108.556 21.2547 108.615 21.5C108.689 21.2493 108.769 21.012 108.855 20.788L110.959 15.692C110.991 15.6067 111.044 15.5373 111.119 15.484C111.199 15.4253 111.287 15.396 111.383 15.396H112.511Z" fill="#444444"/>
<g clip-path="url(#clip0_83854_418)">
<path d="M149.643 0.0157537L149.5 0L136 1.40733V26.0129L149.5 34L163 26.0129V1.40733L149.643 0.0157537ZM161.234 25.0151L149.5 31.9573L137.766 25.0151V14.9293L149.451 21.8451L149.47 23.0984L141.454 18.3548L141.443 19.5801L149.489 24.3885L149.509 25.675L141.464 20.9174L141.454 22.1427L149.5 26.9511L157.624 22.1182V20.8929V16.909L161.243 14.7595L161.234 25.0151ZM161.234 13.4519L158.015 15.3319L156.533 16.2071L149.467 12.0201L149.456 13.2454L155.496 16.818L155.443 16.8495L155.313 16.9247L154.454 17.4166L149.467 14.4689L149.456 15.6942L153.392 18.0222L152.459 18.6314L152.438 18.6436L149.467 16.902L149.456 18.1273L151.403 19.2615L149.416 20.4483L137.797 13.5762L149.435 6.61831L161.234 13.4519ZM161.234 12.2266L149.44 5.31075L137.766 12.2196V2.9897L149.5 1.76442L161.234 2.9897V12.2266Z" fill="#666666"/>
</g>
<defs>
<clipPath id="clip0_83854_418">
<rect width="27" height="34" fill="white" transform="translate(136)"/>
</clipPath>
</defs>
</svg>
